<?xml version="1.0" encoding="utf-8"?>
<!-- Generator: Adobe Illustrator 17.0.0, SVG Export Plug-In . SVG Version: 6.00 Build 0)  -->
<!DOCTYPE svg PUBLIC "-//W3C//DTD SVG 1.1//EN" "http://www.w3.org/Graphics/SVG/1.1/DTD/svg11.dtd">
<svg version="1.1" id="Layer_1" xmlns="http://www.w3.org/2000/svg" xmlns:xlink="http://www.w3.org/1999/xlink" x="0px" y="0px"
	 width="30.937px" height="62.003px" viewBox="0 0 30.937 62.003" enable-background="new 0 0 30.937 62.003" xml:space="preserve">
<circle fill="#00A07E" cx="15.469" cy="15.466" r="15.469"/>
<path fill="#027F5E" d="M30.311,19.822l-6.643-6.644c-0.065-0.065-0.15-0.098-0.236-0.098h-0.031l-2.222-2.219
	c-0.03-0.032-0.066-0.054-0.104-0.071c-0.015-0.006-0.031-0.008-0.047-0.012c-0.018-0.004-0.035-0.012-0.054-0.013l-0.003,0.003
	c-0.009-0.001-0.019-0.005-0.028-0.005h-0.003l-0.736-0.733l-1.678-1.678h-7.812v2.411H9.994c-0.085,0-0.171,0.031-0.235,0.098
	c-0.065,0.065-0.098,0.149-0.098,0.232v1.987H7.506c-0.085,0-0.171,0.034-0.235,0.098c-0.065,0.065-0.098,0.15-0.098,0.235v6.636
	c0,0.085,0.034,0.17,0.098,0.235l6.186,6.187l0.044,0.046c0.002,0,0.002,0,0.002,0l0.062,0.062l4.187,4.187
	C23.76,29.877,28.638,25.535,30.311,19.822z"/>
<path fill="#364A5E" d="M23.764,20.049c0,0.085-0.032,0.17-0.097,0.234c-0.065,0.065-0.15,0.097-0.235,0.097H7.504
	c-0.085,0-0.17-0.032-0.235-0.097c-0.065-0.065-0.097-0.149-0.097-0.234v-4.646h16.591V20.049z"/>
<path fill="#5E6E7F" d="M23.764,15.403H7.173v-1.991c0-0.085,0.033-0.17,0.097-0.234c0.065-0.065,0.15-0.097,0.235-0.097h15.928
	c0.085,0,0.17,0.032,0.235,0.097c0.065,0.065,0.097,0.149,0.097,0.234L23.764,15.403L23.764,15.403z"/>
<path fill="#687B8E" d="M7.173,14.017v-0.606c0-0.085,0.033-0.17,0.097-0.234c0.065-0.065,0.15-0.097,0.235-0.097h5.379l2.323,2.323
	H8.558L7.173,14.017z M14.787,13.08h-1.435l2.323,2.323h1.435L14.787,13.08z"/>
<path fill="#293B4D" d="M21.767,17.394c0-0.084-0.033-0.169-0.098-0.234c-0.065-0.065-0.149-0.097-0.235-0.097H9.489
	c-0.085,0-0.17,0.033-0.235,0.097c-0.065,0.065-0.097,0.15-0.097,0.234v2.987h12.61V17.394z"/>
<path fill="#5E6E7F" d="M9.323,20.381v-2.987c0-0.044,0.017-0.086,0.049-0.117c0.032-0.031,0.073-0.048,0.117-0.048h11.946
	c0.044,0,0.086,0.017,0.117,0.048c0.032,0.031,0.049,0.073,0.049,0.117v2.987H9.323z"/>
<path fill="#293B4D" d="M20.44,18.732c0-0.034-0.013-0.068-0.039-0.094c-0.026-0.026-0.06-0.039-0.094-0.039h-9.689
	c-0.034,0-0.068,0.013-0.094,0.039c-0.026,0.026-0.039,0.06-0.039,0.094v0.531h9.955V18.732z"/>
<g>
	<path fill="#364A5E" d="M21.276,22.25c0,0.085-0.032,0.17-0.097,0.235c-0.065,0.065-0.15,0.097-0.235,0.097H9.993
		c-0.085,0-0.17-0.032-0.235-0.097c-0.065-0.065-0.097-0.15-0.097-0.235v-2.987h11.614V22.25z"/>
	<path fill="#364A5E" d="M21.276,14.081H9.661v-2.987c0-0.085,0.032-0.17,0.097-0.235c0.065-0.065,0.15-0.097,0.235-0.097h10.95
		c0.085,0,0.17,0.032,0.235,0.097c0.065,0.065,0.097,0.15,0.097,0.235L21.276,14.081L21.276,14.081z"/>
</g>
<polygon fill="#FFFFFF" points="10.716,14.081 20.207,14.081 20.207,10.029 18.529,8.352 10.716,8.352 "/>
<polygon fill="#B8D1E5" points="20.207,10.029 18.529,8.352 18.529,10.029 "/>
<rect x="10.717" y="18.86" fill="#FFFFFF" width="9.491" height="3.318"/>
<g>
	<rect x="11.479" y="19.318" fill="#B8D1E5" width="7.965" height="0.132"/>
	<rect x="11.479" y="19.745" fill="#B8D1E5" width="7.965" height="0.133"/>
	<rect x="11.479" y="20.17" fill="#B8D1E5" width="7.965" height="0.132"/>
	<rect x="11.479" y="20.596" fill="#B8D1E5" width="7.965" height="0.133"/>
	<rect x="11.479" y="21.023" fill="#B8D1E5" width="3.983" height="0.132"/>
</g>
<g>
	<path fill="#5E6E7F" d="M23.064,17.414c0,0.037-0.03,0.066-0.066,0.066h-0.465c-0.037,0-0.067-0.03-0.067-0.066v-0.286
		c0-0.037,0.03-0.066,0.067-0.066h0.465c0.036,0,0.066,0.03,0.066,0.066V17.414z"/>
	<path fill="#5E6E7F" d="M23.064,18.36c0,0.037-0.03,0.067-0.066,0.067h-0.465c-0.037,0-0.067-0.03-0.067-0.067v-0.286
		c0-0.036,0.03-0.066,0.067-0.066h0.465c0.036,0,0.066,0.03,0.066,0.066V18.36z"/>
</g>
<circle fill="#F78E36" cx="15.469" cy="46.535" r="15.469"/>
<path fill="#ED7526" d="M30.311,50.89l-6.643-6.644c-0.065-0.065-0.15-0.098-0.236-0.098h-0.031l-2.222-2.219
	c-0.03-0.032-0.066-0.054-0.104-0.071c-0.015-0.006-0.031-0.008-0.047-0.012c-0.018-0.004-0.035-0.012-0.054-0.013l-0.003,0.003
	c-0.009-0.001-0.019-0.005-0.028-0.005h-0.003l-0.736-0.733l-1.678-1.678h-7.812v2.411H9.994c-0.085,0-0.171,0.031-0.235,0.098
	c-0.065,0.065-0.098,0.149-0.098,0.232v1.987H7.506c-0.085,0-0.171,0.034-0.235,0.098c-0.065,0.065-0.098,0.15-0.098,0.235v6.636
	c0,0.085,0.034,0.17,0.098,0.235l6.186,6.187l0.044,0.046c0.002,0,0.002,0,0.002,0l0.062,0.062l4.187,4.187
	C23.76,60.945,28.638,56.603,30.311,50.89z"/>
<path fill="#364A5E" d="M23.764,51.117c0,0.085-0.032,0.17-0.097,0.234c-0.065,0.065-0.15,0.097-0.235,0.097H7.504
	c-0.085,0-0.17-0.032-0.235-0.097c-0.065-0.065-0.097-0.149-0.097-0.234v-4.646h16.591V51.117z"/>
<path fill="#5E6E7F" d="M23.764,46.471H7.173V44.48c0-0.085,0.033-0.17,0.097-0.234c0.065-0.065,0.15-0.097,0.235-0.097h15.928
	c0.085,0,0.17,0.032,0.235,0.097c0.065,0.065,0.097,0.149,0.097,0.234L23.764,46.471L23.764,46.471z"/>
<path fill="#687B8E" d="M7.173,45.086V44.48c0-0.085,0.033-0.17,0.097-0.234c0.065-0.065,0.15-0.097,0.235-0.097h5.379l2.323,2.323
	H8.558L7.173,45.086z M14.787,44.148h-1.435l2.323,2.323h1.435L14.787,44.148z"/>
<path fill="#293B4D" d="M21.767,48.462c0-0.084-0.033-0.169-0.098-0.234c-0.065-0.065-0.149-0.097-0.235-0.097H9.489
	c-0.085,0-0.17,0.033-0.235,0.097c-0.065,0.065-0.097,0.15-0.097,0.234v2.987h12.61V48.462z"/>
<path fill="#5E6E7F" d="M9.323,51.449v-2.987c0-0.044,0.017-0.086,0.049-0.117c0.032-0.031,0.073-0.048,0.117-0.048h11.946
	c0.044,0,0.086,0.017,0.117,0.048c0.032,0.031,0.049,0.073,0.049,0.117v2.987H9.323z"/>
<path fill="#293B4D" d="M20.44,49.8c0-0.034-0.013-0.068-0.039-0.094c-0.026-0.026-0.06-0.039-0.094-0.039h-9.689
	c-0.034,0-0.068,0.013-0.094,0.039c-0.026,0.026-0.039,0.06-0.039,0.094v0.531h9.955V49.8z"/>
<g>
	<path fill="#364A5E" d="M21.276,53.318c0,0.085-0.032,0.17-0.097,0.235c-0.065,0.065-0.15,0.097-0.235,0.097H9.993
		c-0.085,0-0.17-0.032-0.235-0.097c-0.065-0.065-0.097-0.15-0.097-0.235v-2.987h11.614V53.318z"/>
	<path fill="#364A5E" d="M21.276,45.149H9.661v-2.987c0-0.085,0.032-0.17,0.097-0.235c0.065-0.065,0.15-0.097,0.235-0.097h10.95
		c0.085,0,0.17,0.032,0.235,0.097c0.065,0.065,0.097,0.15,0.097,0.235L21.276,45.149L21.276,45.149z"/>
</g>
<polygon fill="#FFFFFF" points="10.716,45.149 20.207,45.149 20.207,41.098 18.529,39.42 10.716,39.42 "/>
<polygon fill="#B8D1E5" points="20.207,41.098 18.529,39.42 18.529,41.098 "/>
<rect x="10.717" y="49.928" fill="#FFFFFF" width="9.491" height="3.318"/>
<g>
	<rect x="11.479" y="50.386" fill="#B8D1E5" width="7.965" height="0.132"/>
	<rect x="11.479" y="50.813" fill="#B8D1E5" width="7.965" height="0.133"/>
	<rect x="11.479" y="51.239" fill="#B8D1E5" width="7.965" height="0.132"/>
	<rect x="11.479" y="51.664" fill="#B8D1E5" width="7.965" height="0.133"/>
	<rect x="11.479" y="52.091" fill="#B8D1E5" width="3.983" height="0.132"/>
</g>
<g>
	<path fill="#5E6E7F" d="M23.064,48.482c0,0.037-0.03,0.066-0.066,0.066h-0.465c-0.037,0-0.067-0.03-0.067-0.066v-0.286
		c0-0.037,0.03-0.066,0.067-0.066h0.465c0.036,0,0.066,0.03,0.066,0.066V48.482z"/>
	<path fill="#5E6E7F" d="M23.064,49.428c0,0.037-0.03,0.067-0.066,0.067h-0.465c-0.037,0-0.067-0.03-0.067-0.067v-0.286
		c0-0.036,0.03-0.066,0.067-0.066h0.465c0.036,0,0.066,0.03,0.066,0.066V49.428z"/>
</g>
</svg>
